<svg width="32" height="32" viewBox="0 0 32 32" fill="none" xmlns="http://www.w3.org/2000/svg">
  <rect width="32" height="32" rx="8" fill="#000000"/>
  <path d="M8 20L8 12L10 12L10 16.5L12 13L14 13L14 16.5L16 12L18 12L18 20L16 20L16 15L14 18L12 18L12 15L10 20L8 20Z" fill="#FFFFFF"/>
  <path d="M20 20L20 12L22 12L22 15.5L24 15.5L24 12L26 12L26 20L24 20L24 17L22 17L22 20L20 20Z" fill="#FFFFFF"/>
  <rect x="1" y="1" width="30" height="30" rx="7" stroke="#FFFFFF" stroke-opacity="0.1" stroke-width="2"/>
</svg>
